<svg xmlns="http://www.w3.org/2000/svg" width="1183" height="172" overflow="hidden" xmlns:v="https://vecta.io/nano"><style><![CDATA[.B{fill:red}.C{fill:#376092}.D{font-weight:700}.E{font-family:HGPGothicE,HGPGothicE_MSFontService,sans-serif}]]></style><defs><clipPath id="A"><path d="M49 247h1183v172H49z" fill-rule="evenodd" clip-rule="evenodd"/></clipPath></defs><g clip-path="url(#A)" transform="translate(-49 -247)"><path fill="#fff" d="M50 248h1181v170H50z"/><text fill="#1f497d" font-family="Noto Sans Mono,Noto Sans Mono_MSFontService,sans-serif" font-size="15" transform="translate(68.773 276)">14:21:51 <tspan x="79.5" y="0">-</tspan><tspan x="97.167" y="0">[metric] {"level":99,"nodeid":"</tspan>D","event":"node.join.receive","msgid":"Y<tspan x="733.167" y="0">","timestamp":1579670511863}</tspan><tspan y="17" x="0">14:21:53 </tspan><tspan x="79.5" y="17">-</tspan><tspan x="97.167" y="17">[metric] {"level":99,"nodeid":"</tspan>D","event":"node.join.receive","msgid":"Z<tspan x="733.167" y="17">","timestamp":1579670513508}</tspan><tspan y="35" x="0">14:21:56 </tspan><tspan x="79.5" y="35">-</tspan><tspan x="97.167" y="35">[metric] {"level":99,"nodeid":"</tspan>D","event":"node.join.receive","msgid":"X<tspan x="733.167" y="35">","timestamp":1579670516424}</tspan><tspan y="53" x="0" class="B">14:21:56 </tspan><tspan x="79.5" y="53" class="B">-</tspan><tspan x="97.167" y="53" class="B">[metric] {"level":99,"nodeid":"</tspan><tspan x="371" y="53" class="B">D</tspan><tspan x="379.833" y="53" class="B">","event":"node.join.</tspan><tspan x="565.333" y="53" class="B D">correlate</tspan><tspan x="644.833" y="53" class="B">","msgid":"</tspan><tspan x="742" y="53" class="B">X</tspan><tspan x="750.833" y="53" class="B">", "</tspan><tspan x="786.167" y="53" class="B">value</tspan><tspan x="830.333" y="53" class="B">"</tspan><tspan x="839.167" y="53" class="B">:</tspan><tspan x="848" y="53" class="B">{"join":["</tspan><tspan x="936.333" y="53" class="B">Y",</tspan><tspan x="962.833" y="53" class="B">"</tspan><tspan x="971.667" y="53" class="B">Z</tspan><tspan x="980.5" y="53" class="B">"</tspan><tspan x="989.333" y="53" class="B">]},</tspan><tspan x="1015.83" y="53" class="B">"</tspan><tspan x="1024.67" y="53" class="B">timestamp</tspan><tspan x="1104.17" y="53" class="B">"</tspan><tspan x="1113" y="53" class="B">:…</tspan><tspan x="1130.67" y="53" class="B">}</tspan><tspan y="70" x="0" class="C">14:21:56 </tspan><tspan x="79.5" y="70" class="C">-</tspan><tspan x="97.167" y="70" class="C">[metric] {"level":99,"nodeid":"</tspan><tspan x="371" y="70" class="C">D</tspan><tspan x="379.833" y="70" class="C">","event":"node.join.send","msgid":"</tspan><tspan x="697.833" y="70" class="C">X</tspan><tspan x="706.667" y="70" class="C">","timestamp":1579670516425}</tspan><tspan y="88" x="0" class="B">14:21:56 </tspan><tspan x="79.5" y="88" class="B">-</tspan><tspan x="97.167" y="88" class="B">[metric] {"level":99,"nodeid":"</tspan><tspan x="371" y="88" class="B">D</tspan><tspan x="379.833" y="88" class="B">","event":"node.join.</tspan><tspan x="565.333" y="88" class="B D">done</tspan><tspan x="600.667" y="88" class="B">","msgid":"</tspan><tspan x="697.833" y="88" class="B">X</tspan><tspan x="706.667" y="88" class="B">"</tspan><tspan x="715.5" y="88" class="B">,”timestamp”:…</tspan><tspan x="839.167" y="88" class="B">}</tspan><tspan y="106" x="0" class="B">14:21:56 </tspan><tspan x="79.5" y="106" class="B">-</tspan><tspan x="97.167" y="106" class="B">[metric] {"level":99,"nodeid":"</tspan><tspan x="371" y="106" class="B">D</tspan><tspan x="379.833" y="106" class="B">","event":"node.join.</tspan><tspan x="565.333" y="106" class="B D">done</tspan><tspan x="600.667" y="106" class="B">","msgid":</tspan><tspan x="689" y="106" class="B E">“</tspan><tspan x="696.333" y="106" class="B">Y</tspan><tspan x="705.167" y="106" class="B">"</tspan><tspan x="714" y="106" class="B">,”timestamp”:…</tspan><tspan x="837.667" y="106" class="B">}</tspan><tspan y="123" x="0" class="B">14:21:56 </tspan><tspan x="79.5" y="123" class="B">-</tspan><tspan x="97.167" y="123" class="B">[metric] {"level":99,"nodeid":"</tspan><tspan x="371" y="123" class="B">D</tspan><tspan x="379.833" y="123" class="B">","event":"node.join.</tspan><tspan x="565.333" y="123" class="B D">done</tspan><tspan x="600.667" y="123" class="B">","msgid":</tspan><tspan x="689" y="123" class="B E">“</tspan><tspan x="696.333" y="123" class="B">Z</tspan><tspan x="705.167" y="123" class="B">"</tspan><tspan x="714" y="123" class="B">,”timestamp”:…</tspan><tspan x="837.667" y="123" class="B">}</tspan></text><g stroke="#00b050" stroke-width="3" stroke-miterlimit="8" fill="none"><path d="M536.5 313.5h545v23h-545zm0 36h253v56h-253z"/></g></g></svg>